# Blender 4.4.1
# www.blender.org
mtllib sniperNBullet.mtl
o 立方体
v 0.019524 -0.119922 -0.406915
v 0.019524 -0.004125 -0.424198
v 0.168177 -0.114810 -0.372662
v 0.168177 0.000988 -0.389945
v -0.179955 0.006475 0.439946
v -0.179955 0.122273 0.422663
v -0.031302 0.011587 0.474199
v -0.031302 0.127385 0.456915
v 0.105067 -0.124473 -0.437405
v 0.105067 -0.008675 -0.454689
v -0.105628 0.009031 0.457072
v -0.105628 0.124829 0.439789
v 0.025868 -0.066043 -0.442490
v 0.174521 -0.060931 -0.408238
v -0.031302 0.069486 0.465557
v -0.179955 0.064374 0.431305
v -0.154367 0.097813 0.655344
v 0.115645 -0.073277 -0.490956
vn 0.6909 0.3622 -0.6256
vn 0.9739 0.0335 0.2244
vn -0.6341 0.7586 0.1495
vn -0.9739 -0.0335 -0.2244
vn -0.0000 -0.9890 0.1476
vn -0.0000 0.9890 -0.1476
vn 0.4540 0.7961 0.4002
vn -0.3700 0.3257 -0.8701
vn -0.3700 -0.5656 -0.7370
vn 0.4540 -0.6445 0.6152
vn -0.6341 -0.6819 0.3645
vn 0.6909 -0.5291 -0.4926
vt 0.375933 0.864142
vt 0.244998 0.863097
vt 0.246939 0.730874
vt 0.376106 0.735195
vt 0.245659 0.501842
vt 0.376420 0.501864
vt 0.376596 0.371073
vt 0.245643 0.370943
vt 0.245857 0.240039
vt 0.376772 0.240114
vt 0.247021 0.010972
vt 0.377089 0.004296
vt 0.748895 0.371763
vt 0.507548 0.371296
vt 0.507687 0.240391
vt 0.736744 0.241685
vt 0.004296 0.370761
vt 0.016797 0.240716
vt 0.016603 0.500823
vt 0.736238 0.501791
vt 0.507180 0.502193
vt 0.375755 0.995704
vt 0.243928 0.995349
vt 0.507584 0.995704
vt 0.506869 0.863449
vt 0.507139 0.011322
vt 0.505284 0.731221
s 1
usemtl youji
f 18/1/1 10/2/1 4/3/1 14/4/1
f 14/4/2 4/3/2 8/5/2 15/6/2
f 17/7/3 12/8/3 6/9/3 16/10/3
f 16/10/4 6/9/4 2/11/4 13/12/4
f 9/13/5 11/14/5 5/15/5 1/16/5
f 12/8/6 10/17/6 2/18/6 6/9/6
f 8/5/6 4/19/6 10/17/6 12/8/6
f 3/20/5 7/21/5 11/14/5 9/13/5
f 15/6/7 8/5/7 12/8/7 17/7/7
f 13/22/8 2/23/8 10/2/8 18/1/8
f 1/24/9 13/22/9 18/1/9 9/25/9
f 7/21/10 15/6/10 17/7/10 11/14/10
f 5/15/4 16/10/4 13/12/4 1/26/4
f 11/14/11 17/7/11 16/10/11 5/15/11
f 3/27/2 14/4/2 15/6/2 7/21/2
f 9/25/12 18/1/12 14/4/12 3/27/12
