# Blender 4.4.1
# www.blender.org
mtllib speedNBullet.mtl
o 円柱
v 0.000000 0.177716 -0.579265
v 0.000000 0.169237 0.581799
v 0.150238 0.090978 -0.579899
v 0.150238 0.082499 0.581165
v 0.150238 -0.082499 -0.581165
v 0.150238 -0.090978 0.579899
v 0.000000 -0.169237 -0.581799
v 0.000000 -0.177716 0.579265
v -0.150238 -0.082499 -0.581165
v -0.150238 -0.090978 0.579899
v -0.150238 0.090978 -0.579899
v -0.150238 0.082499 0.581165
v 0.000000 -0.005654 0.774228
v 0.106045 0.056740 0.610927
v 0.106225 -0.065894 0.609756
v -0.000073 -0.126414 0.610451
v -0.105692 0.056446 0.611688
v -0.000073 0.117344 0.612240
v -0.109107 -0.067443 0.605555
v 0.000000 0.090991 -0.581699
v 0.000000 0.082486 0.582966
v 0.075120 0.047622 -0.582015
v 0.075120 0.039116 0.582649
v 0.075120 -0.039116 -0.582649
v 0.075120 -0.047622 0.582015
v 0.000000 -0.082486 -0.582966
v 0.000000 -0.090991 0.581699
v -0.075120 -0.039116 -0.582649
v -0.075120 -0.047622 0.582015
v -0.075120 0.047622 -0.582015
v -0.075120 0.039116 0.582649
vn 0.5000 0.8660 0.0063
vn 1.0000 -0.0000 -0.0000
vn 0.5000 -0.8660 -0.0063
vn -0.5000 -0.8660 -0.0063
vn 0.5591 -0.0069 0.8291
vn 0.5606 -0.0061 0.8280
vn 0.5610 -0.0060 0.8278
vn -1.0000 -0.0000 -0.0000
vn -0.5000 0.8660 0.0063
vn -0.0000 0.0073 -1.0000
vn 0.2864 -0.4957 0.8199
vn 0.2814 -0.4919 0.8240
vn 0.2799 -0.4909 0.8250
vn -0.5676 -0.0060 0.8233
vn -0.4196 0.7228 0.5490
vn -0.2842 -0.4983 0.8191
vn 0.2828 0.4787 0.8312
vn 0.2834 0.4837 0.8281
vn 0.2835 0.4849 0.8273
vn 0.4195 -0.7307 0.5386
vn -0.8390 -0.0038 0.5441
vn -0.2836 0.4847 0.8274
vn -0.2837 0.4848 0.8273
vn -0.2837 0.4845 0.8275
vn -0.4193 -0.7306 0.5389
vn 0.4197 0.7230 0.5488
vn 0.8394 -0.0040 0.5436
vn -0.0000 -0.0073 1.0000
vn 0.5586 -0.0071 0.8294
vn 0.2884 -0.4971 0.8184
vn -0.5174 -0.0281 0.8553
vn -0.2780 -0.4432 0.8522
vn 0.2826 0.4768 0.8323
vn -0.2838 0.4855 0.8269
vt 0.336483 0.009448
vt 0.009448 0.172966
vt 0.009448 0.009448
vt 0.336483 0.172966
vt 0.009448 0.336483
vt 0.336483 0.336483
vt 0.009448 0.500000
vt 0.336483 0.500000
vt 0.009448 0.663517
vt 0.603530 0.627996
vt 0.500766 0.518897
vt 0.647127 0.602751
vt 0.336483 0.663517
vt 0.009448 0.827034
vt 0.336483 0.827034
vt 0.009448 0.990552
vt 0.807635 0.845931
vt 0.666025 0.600655
vt 0.949245 0.600655
vt 0.500816 0.568787
vt 0.355379 0.603500
vt 0.355379 0.771862
vt 0.501311 0.805102
vt 0.501480 0.855528
vt 0.501162 0.687347
vt 0.603083 0.746100
vt 0.399101 0.628708
vt 0.647129 0.771408
vt 0.395756 0.748431
vt 0.683428 0.009448
vt 0.355379 0.091207
vt 0.355379 0.009448
vt 0.683428 0.091207
vt 0.355379 0.172966
vt 0.683428 0.172966
vt 0.355379 0.254724
vt 0.683428 0.254724
vt 0.355379 0.336483
vt 0.843934 0.314500
vt 0.702324 0.314500
vt 0.773129 0.191862
vt 0.683428 0.336483
vt 0.355379 0.418241
vt 0.683428 0.418241
vt 0.355379 0.500000
vt 0.702324 0.132086
vt 0.773129 0.009448
vt 0.843934 0.132086
vt 0.336483 0.990552
vt 0.949245 0.764172
vt 0.666025 0.764173
vt 0.807635 0.518897
vt 0.843934 0.232741
vt 0.773129 0.355379
vt 0.702324 0.232741
vt 0.683428 0.500000
vt 0.773129 0.172965
vt 0.702324 0.050328
vt 0.843934 0.050328
s 1
usemtl SpeedNBullet
f 2/1/1 3/2/1 1/3/1
f 4/4/2 5/5/2 3/2/2
f 6/6/3 7/7/3 5/5/3
f 8/8/4 9/9/4 7/7/4
f 14/10/5 6/11/6 4/12/7
f 10/13/8 11/14/8 9/9/8
f 12/15/9 1/16/9 11/14/9
f 3/17/10 7/18/10 11/19/10
f 15/20/11 8/21/12 6/11/13
f 10/22/14 17/23/14 12/24/14
f 13/25/15 18/26/15 17/23/15
f 16/27/16 10/22/16 8/21/16
f 18/26/17 4/12/18 2/28/19
f 16/27/20 15/20/20 13/25/20
f 17/23/21 19/29/21 13/25/21
f 18/26/22 12/24/23 17/23/24
f 19/29/25 16/27/25 13/25/25
f 14/10/26 18/26/26 13/25/26
f 15/20/27 14/10/27 13/25/27
f 21/30/1 22/31/1 20/32/1
f 23/33/2 24/34/2 22/31/2
f 25/35/3 26/36/3 24/34/3
f 27/37/4 28/38/4 26/36/4
f 21/39/28 29/40/28 25/41/28
f 29/42/8 30/43/8 28/38/8
f 31/44/9 20/45/9 30/43/9
f 22/46/10 26/47/10 30/48/10
f 2/1/1 4/4/1 3/2/1
f 4/4/2 6/6/2 5/5/2
f 6/6/3 8/8/3 7/7/3
f 8/8/4 10/13/4 9/9/4
f 14/10/5 15/20/29 6/11/6
f 10/13/8 12/15/8 11/14/8
f 12/15/9 2/49/9 1/16/9
f 11/19/10 1/50/10 3/17/10
f 3/17/10 5/51/10 7/18/10
f 7/18/10 9/52/10 11/19/10
f 15/20/11 16/27/30 8/21/12
f 10/22/31 19/29/31 17/23/31
f 16/27/32 19/29/32 10/22/32
f 18/26/17 14/10/33 4/12/18
f 18/26/22 2/28/34 12/24/23
f 21/30/1 23/33/1 22/31/1
f 23/33/2 25/35/2 24/34/2
f 25/35/3 27/37/3 26/36/3
f 27/37/4 29/42/4 28/38/4
f 25/41/28 23/53/28 21/39/28
f 21/39/28 31/54/28 29/40/28
f 29/40/28 27/55/28 25/41/28
f 29/42/8 31/44/8 30/43/8
f 31/44/9 21/56/9 20/45/9
f 30/48/10 20/57/10 22/46/10
f 22/46/10 24/58/10 26/47/10
f 26/47/10 28/59/10 30/48/10
