# Blender 4.4.1
# www.blender.org
mtllib bossBananPeelRight.mtl
o 球.001
v 0.004195 0.423203 0.020368
v 0.008230 0.386775 0.039954
v 0.011947 0.335127 0.058004
v 0.014540 0.283905 0.073439
v 0.005988 0.209278 0.079907
v -0.019252 0.106654 0.073752
v -0.060782 -0.020717 0.054879
v -0.113610 -0.154357 0.026007
v -0.167953 -0.244345 -0.007168
v -0.218120 -0.302316 -0.041328
v -0.260411 -0.350554 -0.074196
v -0.292721 -0.399778 -0.104264
v -0.326293 -0.447533 -0.130970
v -0.368616 -0.486383 -0.154770
v -0.393620 -0.510935 -0.176722
v -0.000000 0.423213 0.020767
v -0.000000 0.386798 0.040737
v -0.000000 0.335133 0.059141
v -0.000667 0.283904 0.074884
v -0.011898 0.209272 0.081605
v -0.039132 0.106640 0.075635
v -0.081894 -0.020741 0.056874
v -0.135035 -0.152988 0.028102
v -0.188862 -0.241575 -0.005049
v -0.237801 -0.299460 -0.039323
v -0.278162 -0.348482 -0.072416
v -0.307866 -0.398670 -0.102780
v -0.338979 -0.447111 -0.129824
v -0.377284 -0.486281 -0.153988
v -0.397888 -0.510926 -0.176324
v -0.004195 0.423203 0.020368
v -0.008230 0.386775 0.039954
v -0.011947 0.335127 0.058004
v -0.015872 0.283905 0.073439
v -0.029773 0.209278 0.079907
v -0.058988 0.106654 0.073752
v -0.102965 -0.020717 0.054879
v -0.156385 -0.151310 0.026150
v -0.209678 -0.238402 -0.006889
v -0.257388 -0.296243 -0.041043
v -0.295833 -0.346160 -0.073990
v -0.322952 -0.397426 -0.104153
v -0.351679 -0.446629 -0.130928
v -0.385925 -0.486159 -0.154760
v -0.402138 -0.510912 -0.176721
v -0.008230 0.423175 0.019187
v -0.016143 0.386710 0.037636
v -0.023436 0.335109 0.054639
v -0.030492 0.283908 0.069157
v -0.046952 0.209296 0.074879
v -0.078059 0.106695 0.068175
v -0.123189 -0.020647 0.048971
v -0.176841 -0.149367 0.020226
v -0.229603 -0.234929 -0.012616
v -0.276131 -0.292772 -0.046422
v -0.312747 -0.343669 -0.078859
v -0.337400 -0.396088 -0.108333
v -0.363919 -0.446103 -0.134241
v -0.394216 -0.486022 -0.157058
v -0.406209 -0.510895 -0.177899
v -0.011947 0.423134 0.017267
v -0.023436 0.386613 0.033871
v -0.034023 0.335084 0.049174
v -0.043964 0.283913 0.062203
v -0.062776 0.209322 0.066712
v -0.095615 0.106756 0.059116
v -0.141795 -0.020544 0.039373
v -0.195625 -0.147226 0.010552
v -0.247882 -0.231279 -0.022017
v -0.293320 -0.289172 -0.055260
v -0.328263 -0.341095 -0.086842
v -0.350663 -0.394703 -0.115163
v -0.375251 -0.445553 -0.139639
v -0.401856 -0.485874 -0.160794
v -0.409950 -0.510876 -0.179811
v -0.015206 0.423085 0.014685
v -0.029828 0.386500 0.028805
v -0.043304 0.335056 0.041819
v -0.055771 0.283918 0.052844
v -0.076639 0.209353 0.055719
v -0.110988 0.106828 0.046920
v -0.158077 -0.020422 0.026447
v -0.212027 -0.144976 -0.002507
v -0.263825 -0.227592 -0.034738
v -0.308310 -0.285575 -0.067227
v -0.341800 -0.338532 -0.097640
v -0.362243 -0.393321 -0.124387
v -0.385265 -0.445000 -0.146920
v -0.408571 -0.485722 -0.165829
v -0.413223 -0.510855 -0.182386
v -0.403273 -0.519230 -0.197670
v -0.017881 0.423036 0.011538
v -0.035074 0.386386 0.022632
v -0.050920 0.335029 0.032857
v -0.065460 0.283923 0.041440
v -0.088012 0.209384 0.042322
v -0.123594 0.106899 0.032051
v -0.171421 -0.020300 0.010684
v -0.225434 -0.142725 -0.018458
v -0.276840 -0.224020 -0.050302
v -0.320544 -0.282121 -0.081873
v -0.352855 -0.336078 -0.110848
v -0.371710 -0.391998 -0.135659
v -0.393603 -0.444469 -0.155809
v -0.414124 -0.485575 -0.171971
v -0.415911 -0.510835 -0.185526
v -0.019868 0.422995 0.007947
v -0.038972 0.386291 0.015589
v -0.056579 0.335007 0.022632
v -0.072659 0.283927 0.028429
v -0.096460 0.209410 0.027032
v -0.132954 0.106960 0.015077
v -0.181327 -0.020196 -0.007316
v -0.235347 -0.140595 -0.036699
v -0.286444 -0.220717 -0.068121
v -0.329571 -0.278951 -0.098646
v -0.361021 -0.333834 -0.125969
v -0.378714 -0.390791 -0.148555
v -0.399965 -0.443985 -0.165970
v -0.418321 -0.485442 -0.178987
v -0.417914 -0.510817 -0.189110
v -0.021092 0.422967 0.004052
v -0.041373 0.386227 0.007947
v -0.060064 0.334994 0.011538
v -0.077092 0.283930 0.014310
v -0.101661 0.209428 0.010437
v -0.138716 0.107001 -0.003353
v -0.187422 -0.020127 -0.026869
v -0.241402 -0.138705 -0.056538
v -0.292287 -0.217837 -0.087521
v -0.335060 -0.276200 -0.116912
v -0.366000 -0.331895 -0.142432
v -0.382999 -0.389753 -0.162586
v -0.404118 -0.443573 -0.177017
v -0.421013 -0.485331 -0.186610
v -0.419162 -0.510802 -0.193001
v -0.021505 0.422957 -0.000000
v -0.042183 0.386205 -0.000000
v -0.061240 0.334989 -0.000000
v -0.078589 0.283931 -0.000374
v -0.103417 0.209434 -0.006828
v -0.140661 0.107015 -0.022532
v -0.189479 -0.020103 -0.047226
v -0.243376 -0.137172 -0.077219
v -0.294154 -0.215517 -0.107762
v -0.336814 -0.273992 -0.135976
v -0.367611 -0.330345 -0.159609
v -0.384435 -0.388932 -0.177218
v -0.405906 -0.443253 -0.188530
v -0.422103 -0.485248 -0.194548
v -0.419609 -0.510792 -0.197051
v -0.021092 0.422967 -0.004052
v -0.041373 0.386227 -0.007947
v -0.060064 0.334994 -0.011538
v -0.077092 0.283930 -0.015060
v -0.101661 0.209428 -0.024098
v -0.138716 0.107001 -0.041726
v -0.187422 -0.020127 -0.067606
v -0.241201 -0.136091 -0.097950
v -0.291981 -0.213873 -0.128071
v -0.334770 -0.272428 -0.155108
v -0.365797 -0.329256 -0.176843
v -0.382975 -0.388365 -0.191890
v -0.405252 -0.443043 -0.200068
v -0.421549 -0.485199 -0.202498
v -0.419238 -0.510788 -0.201103
v -0.019868 0.422995 -0.007947
v -0.038972 0.386291 -0.015589
v -0.056579 0.335007 -0.022632
v -0.072659 0.283927 -0.029181
v -0.096460 0.209410 -0.040711
v -0.132954 0.106960 -0.060194
v -0.181327 -0.020196 -0.087224
v -0.234957 -0.135532 -0.117935
v -0.285849 -0.212989 -0.147666
v -0.329003 -0.271582 -0.173572
v -0.360624 -0.328675 -0.193470
v -0.378641 -0.388078 -0.206038
v -0.402164 -0.442949 -0.211185
v -0.419365 -0.485186 -0.210153
v -0.418063 -0.510790 -0.205003
vn 0.0576 -0.5307 0.8456
vn -0.0356 -0.4860 0.8732
vn -0.0149 -0.4992 0.8664
vn 0.0937 -0.1212 0.9882
vn 0.0033 0.0144 0.9999
vn 0.0015 -0.1027 0.9947
vn 0.0634 -0.6105 0.7895
vn -0.0151 -0.5868 0.8096
vn 0.0923 -0.2030 0.9748
vn 0.0006 -0.1791 0.9838
vn 0.0531 -0.8029 0.5938
vn -0.0142 -0.8121 0.5834
vn 0.0748 -0.2957 0.9523
vn -0.0137 -0.2755 0.9612
vn -0.3028 -0.9315 0.2017
vn 0.0362 -0.4280 0.9030
vn -0.0494 -0.4023 0.9142
vn 0.0842 0.4791 0.8737
vn -0.0000 0.4078 0.9131
vn 0.0876 0.4058 0.9098
vn 0.0091 -0.5342 0.8453
vn -0.0717 -0.4904 0.8685
vn 0.0004 0.3144 0.9493
vn 0.0901 0.3126 0.9456
vn 0.0174 -0.5547 0.8319
vn -0.0627 -0.5045 0.8611
vn 0.0930 0.1881 0.9777
vn 0.0042 0.1909 0.9816
vn 0.0427 -0.5270 0.8488
vn 0.0945 0.0056 0.9955
vn -0.2183 -0.2938 0.9306
vn -0.2340 -0.3742 0.8973
vn -0.1744 0.4082 0.8961
vn -0.1790 0.3160 0.9317
vn -0.2273 -0.4029 0.8866
vn -0.1801 0.2069 0.9616
vn -0.2037 -0.3950 0.8958
vn -0.1846 0.0553 0.9813
vn -0.1746 -0.3933 0.9027
vn -0.1864 -0.0440 0.9815
vn -0.1714 -0.4893 0.8551
vn -0.1861 -0.1096 0.9764
vn -0.1331 -0.7775 0.6147
vn -0.1940 -0.1894 0.9625
vn -0.1670 0.4812 0.8605
vn -0.3439 -0.2692 0.8996
vn -0.3419 -0.3774 0.8606
vn -0.3691 0.0201 0.9292
vn -0.3693 -0.0320 0.9288
vn -0.3496 -0.4983 0.7934
vn -0.3717 -0.0900 0.9240
vn -0.1442 -0.9193 0.3662
vn -0.3867 -0.1658 0.9072
vn -0.3283 0.4822 0.8122
vn -0.3427 0.4093 0.8456
vn -0.3996 -0.2362 0.8857
vn -0.3524 0.3185 0.8800
vn -0.3970 -0.2841 0.8727
vn -0.3576 0.2245 0.9065
vn -0.3780 -0.2882 0.8798
vn -0.3658 0.0996 0.9254
vn -0.4988 0.4110 0.7631
vn -0.5139 0.3216 0.7953
vn -0.5558 -0.0833 0.8271
vn -0.5605 -0.1538 0.8137
vn -0.5221 0.2429 0.8175
vn -0.5476 -0.1697 0.8193
vn -0.5330 0.1454 0.8335
vn -0.5111 -0.1336 0.8491
vn -0.5382 0.0867 0.8384
vn -0.5140 -0.2589 0.8178
vn -0.5395 0.0505 0.8404
vn -0.5200 -0.4064 0.7513
vn -0.5364 0.0187 0.8438
vn -0.2205 -0.9125 0.3445
vn -0.5432 -0.0238 0.8393
vn -0.4780 0.4838 0.7331
vn -0.6850 0.1527 0.7124
vn -0.6867 0.1337 0.7145
vn -0.6727 -0.1438 0.7258
vn -0.6784 -0.3157 0.6634
vn -0.6771 0.1305 0.7243
vn -0.2935 -0.9059 0.3053
vn -0.6747 0.1222 0.7279
vn -0.6105 0.4856 0.6257
vn -0.6369 0.4130 0.6510
vn -0.6885 0.0728 0.7216
vn -0.6574 0.3251 0.6798
vn -0.7044 -0.0210 0.7095
vn -0.6674 0.2615 0.6973
vn -0.6991 -0.0470 0.7134
vn -0.6792 0.1908 0.7087
vn -0.6616 0.0024 0.7499
vn -0.7864 0.2190 0.5775
vn -0.8173 0.1044 0.5667
vn -0.7771 0.3285 0.5369
vn -0.7874 0.2792 0.5496
vn -0.8200 0.0707 0.5680
vn -0.7977 0.2336 0.5560
vn -0.7830 0.1271 0.6088
vn -0.8022 0.2146 0.5572
vn -0.8056 -0.0419 0.5909
vn -0.8022 0.2128 0.5579
vn -0.8119 -0.2342 0.5347
vn -0.7846 0.2380 0.5725
vn -0.3584 -0.8997 0.2491
vn -0.7710 0.2607 0.5810
vn -0.7205 0.4874 0.4933
vn -0.7512 0.4152 0.5131
vn -0.9050 0.0399 0.4234
vn -0.9115 -0.1687 0.3751
vn -0.8804 0.2834 0.3802
vn -0.8538 0.3343 0.3990
vn -0.4103 -0.8945 0.1774
vn -0.8279 0.3817 0.4109
vn -0.8029 0.4890 0.3408
vn -0.8370 0.4170 0.3544
vn -0.8451 0.3451 0.4083
vn -0.8672 0.3315 0.3715
vn -0.8926 0.2144 0.3967
vn -0.8767 0.2951 0.3799
vn -0.9023 0.1744 0.3942
vn -0.8833 0.2719 0.3820
vn -0.8689 0.2310 0.4377
vn -0.8844 0.2694 0.3810
vn -0.9233 0.3338 0.1901
vn -0.9310 0.3085 0.1949
vn -0.9289 0.3041 0.2115
vn -0.9440 0.2579 0.2056
vn -0.9326 0.3040 0.1947
vn -0.9181 0.3089 0.2485
vn -0.9293 0.3150 0.1929
vn -0.9673 0.0977 0.2342
vn -0.9198 0.3423 0.1920
vn -0.9730 -0.1235 0.1952
vn -0.8844 0.4143 0.2147
vn -0.4449 -0.8907 0.0939
vn -0.8467 0.4795 0.2306
vn -0.8541 0.4900 0.1741
vn -0.8901 0.4183 0.1810
vn -0.8658 0.4458 0.2274
vn -0.9219 0.3875 0.0027
vn -0.8793 0.4754 0.0291
vn -0.4588 -0.8885 0.0034
vn -0.8323 0.5521 0.0499
vn -0.8715 0.4904 -0.0000
vn -0.9081 0.4187 -0.0000
vn -0.8530 0.5200 0.0451
vn -0.9422 0.3350 0.0002
vn -0.9281 0.3717 0.0220
vn -0.9479 0.3187 0.0024
vn -0.9479 0.3183 0.0135
vn -0.9444 0.3288 0.0022
vn -0.9322 0.3585 0.0505
vn -0.9368 0.3499 0.0016
vn -0.9910 0.1297 0.0329
vn -0.9949 -0.1005 0.0052
vn -0.8938 0.4174 -0.1643
vn -0.9179 0.3558 -0.1757
vn -0.9265 0.3253 -0.1890
vn -0.9194 0.3456 -0.1875
vn -0.9137 0.3781 -0.1492
vn -0.9089 0.3735 -0.1854
vn -0.9757 0.1352 -0.1726
vn -0.8902 0.4183 -0.1804
vn -0.9773 -0.0985 -0.1876
vn -0.8426 0.5169 -0.1511
vn -0.4507 -0.8883 -0.0884
vn -0.7901 0.6001 -0.1250
vn -0.8901 0.4183 -0.1810
vn -0.8118 0.5689 -0.1319
vn -0.9229 0.3351 -0.1896
vn -0.4409 -0.8877 -0.1325
vn -0.8120 0.5329 -0.2381
vn -0.7587 0.6168 -0.2096
vn -0.8541 0.4900 -0.1741
vn -0.8681 0.4170 -0.2692
vn -0.7831 0.5824 -0.2183
vn -0.8996 0.3334 -0.2821
vn -0.8669 0.4285 -0.2548
vn -0.9019 0.3262 -0.2831
vn -0.8915 0.3668 -0.2657
vn -0.8936 0.3508 -0.2801
vn -0.8916 0.3800 -0.2461
vn -0.8823 0.3811 -0.2761
vn -0.9501 0.1561 -0.2700
vn -0.8622 0.4295 -0.2687
vn -0.9532 -0.1020 -0.2846
vn -0.0000 0.4808 0.8768
vn -0.8338 0.4878 -0.2585
vt 0.140844 0.098854
vt 0.143806 0.155090
vt 0.129044 0.096837
vt 0.201453 0.731329
vt 0.161440 0.820385
vt 0.184457 0.722867
vt 0.112108 0.048322
vt 0.104460 0.047739
vt 0.219698 0.603994
vt 0.201319 0.595666
vt 0.091921 0.018888
vt 0.088406 0.019501
vt 0.228775 0.464581
vt 0.209304 0.457962
vt 0.079184 0.002373
vt 0.217267 0.359729
vt 0.197535 0.355414
vt 0.046643 0.997627
vt 0.071362 0.966645
vt 0.077002 0.972081
vt 0.194680 0.282780
vt 0.175946 0.279907
vt 0.104027 0.926837
vt 0.112811 0.934073
vt 0.172965 0.217898
vt 0.156186 0.215627
vt 0.145239 0.894141
vt 0.133359 0.885743
vt 0.158063 0.157281
vt 0.176253 0.828971
vt 0.178316 0.350101
vt 0.157745 0.275737
vt 0.065459 0.961709
vt 0.094866 0.920170
vt 0.139855 0.212062
vt 0.121393 0.877945
vt 0.129836 0.151782
vt 0.146764 0.812018
vt 0.117477 0.093854
vt 0.167711 0.714208
vt 0.097140 0.046412
vt 0.183256 0.586831
vt 0.085049 0.019630
vt 0.190206 0.450703
vt 0.040908 0.992007
vt 0.106251 0.090117
vt 0.090261 0.044517
vt 0.151131 0.705537
vt 0.165463 0.577736
vt 0.081884 0.019342
vt 0.171427 0.443054
vt 0.159542 0.344066
vt 0.037725 0.989595
vt 0.059305 0.957276
vt 0.140074 0.270617
vt 0.085440 0.914133
vt 0.124041 0.207535
vt 0.109304 0.870753
vt 0.116216 0.147607
vt 0.132136 0.803962
vt 0.052924 0.953361
vt 0.075777 0.908736
vt 0.122868 0.264920
vt 0.108717 0.202392
vt 0.097045 0.864178
vt 0.102918 0.142829
vt 0.117461 0.796310
vt 0.095417 0.085867
vt 0.134613 0.697040
vt 0.083843 0.042218
vt 0.147820 0.568630
vt 0.078924 0.018701
vt 0.152828 0.435283
vt 0.141085 0.337631
vt 0.034375 0.987476
vt 0.118043 0.688909
vt 0.130183 0.559769
vt 0.077842 0.039643
vt 0.076159 0.017752
vt 0.134247 0.427679
vt 0.122786 0.331143
vt 0.030884 0.985667
vt 0.046333 0.949984
vt 0.105991 0.259023
vt 0.065895 0.903994
vt 0.093768 0.196960
vt 0.084577 0.858248
vt 0.089853 0.137713
vt 0.102652 0.789168
vt 0.084976 0.081342
vt 0.089268 0.253278
vt 0.079025 0.191533
vt 0.055806 0.899927
vt 0.071872 0.853002
vt 0.076901 0.132511
vt 0.087635 0.782646
vt 0.074885 0.076754
vt 0.101315 0.681337
vt 0.072173 0.036870
vt 0.112399 0.551419
vt 0.073574 0.016518
vt 0.115522 0.420543
vt 0.104474 0.324956
vt 0.027273 0.984186
vt 0.039549 0.947168
vt 0.066725 0.033931
vt 0.071149 0.015005
vt 0.094332 0.543845
vt 0.096528 0.414174
vt 0.086006 0.319409
vt 0.023566 0.983050
vt 0.032585 0.944939
vt 0.072517 0.247993
vt 0.045515 0.896555
vt 0.064301 0.186353
vt 0.058905 0.848488
vt 0.063939 0.127446
vt 0.072352 0.776863
vt 0.065057 0.072270
vt 0.084335 0.674515
vt 0.035027 0.893898
vt 0.045661 0.844754
vt 0.049421 0.181612
vt 0.050862 0.122708
vt 0.056763 0.771932
vt 0.055363 0.068013
vt 0.067037 0.668624
vt 0.061368 0.030826
vt 0.075892 0.537307
vt 0.068868 0.013196
vt 0.077199 0.408851
vt 0.067282 0.314809
vt 0.019783 0.982274
vt 0.025452 0.943321
vt 0.055571 0.243430
vt 0.057053 0.532037
vt 0.057547 0.404815
vt 0.066712 0.011060
vt 0.048264 0.311419
vt 0.015946 0.981871
vt 0.018161 0.942338
vt 0.038298 0.239805
vt 0.024345 0.891974
vt 0.034238 0.177462
vt 0.032134 0.841849
vt 0.037598 0.118431
vt 0.040855 0.767959
vt 0.045646 0.064074
vt 0.049392 0.663829
vt 0.055941 0.027537
vt 0.018623 0.174018
vt 0.024120 0.114722
vt 0.018331 0.839811
vt 0.024642 0.765034
vt 0.035740 0.060543
vt 0.031412 0.660265
vt 0.050247 0.024044
vt 0.037855 0.528231
vt 0.064655 0.008548
vt 0.037658 0.402255
vt 0.028971 0.309466
vt 0.010731 0.942027
vt 0.020595 0.237314
vt 0.013444 0.890797
vt 0.062621 0.005499
vt 0.017665 0.401289
vt 0.009446 0.309135
vt 0.012063 0.981841
vt 0.003172 0.942382
vt 0.002374 0.236150
vt 0.002373 0.890390
vt 0.002476 0.171383
vt 0.004241 0.838669
vt 0.010486 0.111671
vt 0.008160 0.763221
vt 0.025591 0.057598
vt 0.013137 0.658031
vt 0.044136 0.020471
vt 0.018399 0.526023
vt 0.043896 0.994693
vt 0.008185 0.982207
s 1
usemtl peelRight
f 13/1/1 27/2/2 28/3/3
f 6/4/4 20/5/5 21/6/6
f 14/7/7 28/3/3 29/8/8
f 7/9/9 21/6/6 22/10/10
f 15/11/11 29/8/8 30/12/12
f 8/13/13 22/10/10 23/14/14
f 91/15/15 15/11/11 30/12/12
f 9/16/16 23/14/14 24/17/17
f 1/18/18 17/19/19 2/20/20
f 10/21/21 24/17/17 25/22/22
f 2/20/20 18/23/23 3/24/24
f 11/25/25 25/22/22 26/26/26
f 4/27/27 18/23/23 19/28/28
f 12/29/29 26/26/26 27/2/2
f 5/30/30 19/28/28 20/5/5
f 25/22/22 39/31/31 40/32/32
f 18/23/23 32/33/33 33/34/34
f 26/26/26 40/32/32 41/35/35
f 19/28/28 33/34/34 34/36/36
f 27/2/2 41/35/35 42/37/37
f 20/5/5 34/36/36 35/38/38
f 28/3/3 42/37/37 43/39/39
f 21/6/6 35/38/38 36/40/40
f 29/8/8 43/39/39 44/41/41
f 22/10/10 36/40/40 37/42/42
f 30/12/12 44/41/41 45/43/43
f 23/14/14 37/42/42 38/44/44
f 91/15/15 30/12/12 45/43/43
f 24/17/17 38/44/44 39/31/31
f 17/19/19 31/45/45 32/33/33
f 44/41/41 58/46/46 59/47/47
f 37/42/42 51/48/48 52/49/49
f 45/43/43 59/47/47 60/50/50
f 38/44/44 52/49/49 53/51/51
f 91/15/15 45/43/43 60/50/52
f 39/31/31 53/51/51 54/52/53
f 32/33/33 46/53/54 47/54/55
f 40/32/32 54/52/53 55/55/56
f 33/34/34 47/54/55 48/56/57
f 41/35/35 55/55/56 56/57/58
f 34/36/36 48/56/57 49/58/59
f 42/37/37 56/57/58 57/59/60
f 35/38/38 49/58/59 50/60/61
f 43/39/39 57/59/60 58/46/46
f 36/40/40 50/60/61 51/48/48
f 48/56/57 62/61/62 63/62/63
f 56/57/58 70/63/64 71/64/65
f 49/58/59 63/62/63 64/65/66
f 57/59/60 71/64/65 72/66/67
f 50/60/61 64/65/66 65/67/68
f 58/46/46 72/66/67 73/68/69
f 51/48/48 65/67/68 66/69/70
f 59/47/47 73/68/69 74/70/71
f 52/49/49 66/69/70 67/71/72
f 60/50/50 74/70/71 75/72/73
f 53/51/51 67/71/72 68/73/74
f 91/15/15 60/50/52 75/72/75
f 54/52/53 68/73/74 69/74/76
f 47/54/55 61/75/77 62/61/62
f 55/55/56 69/74/76 70/63/64
f 67/71/72 81/76/78 82/77/79
f 75/72/73 89/78/80 90/79/81
f 68/73/74 82/77/79 83/80/82
f 91/15/15 75/72/75 90/79/83
f 69/74/76 83/80/82 84/81/84
f 62/61/62 76/82/85 77/83/86
f 70/63/64 84/81/84 85/84/87
f 63/62/63 77/83/86 78/85/88
f 71/64/65 85/84/87 86/86/89
f 64/65/66 78/85/88 79/87/90
f 72/66/67 86/86/89 87/88/91
f 65/67/68 79/87/90 80/89/92
f 73/68/69 87/88/91 88/90/93
f 66/69/70 80/89/92 81/76/78
f 74/70/71 88/90/93 89/78/80
f 86/86/89 101/91/94 102/92/95
f 79/87/90 94/93/96 95/94/97
f 87/88/91 102/92/95 103/95/98
f 80/89/92 95/94/97 96/96/99
f 88/90/93 103/95/98 104/97/100
f 81/76/78 96/96/99 97/98/101
f 89/78/80 104/97/100 105/99/102
f 82/77/79 97/98/101 98/100/103
f 90/79/81 105/99/102 106/101/104
f 83/80/82 98/100/103 99/102/105
f 91/15/15 90/79/83 106/101/106
f 84/81/84 99/102/105 100/103/107
f 77/83/86 92/104/108 93/105/109
f 85/84/87 100/103/107 101/91/94
f 78/85/88 93/105/109 94/93/96
f 106/101/104 120/106/110 121/107/111
f 99/102/105 113/108/112 114/109/113
f 91/15/15 106/101/106 121/107/114
f 100/103/107 114/109/113 115/110/115
f 93/105/109 107/111/116 108/112/117
f 101/91/94 115/110/115 116/113/118
f 94/93/96 108/112/117 109/114/119
f 102/92/95 116/113/118 117/115/120
f 95/94/97 109/114/119 110/116/121
f 103/95/98 117/115/120 118/117/122
f 96/96/99 110/116/121 111/118/123
f 104/97/100 118/117/122 119/119/124
f 97/98/101 111/118/123 112/120/125
f 105/99/102 119/119/124 120/106/110
f 98/100/103 112/120/125 113/108/112
f 110/116/121 124/121/126 125/122/127
f 118/117/122 132/123/128 133/124/129
f 111/118/123 125/122/127 126/125/130
f 119/119/124 133/124/129 134/126/131
f 112/120/125 126/125/130 127/127/132
f 120/106/110 134/126/131 135/128/133
f 113/108/112 127/127/132 128/129/134
f 121/107/111 135/128/133 136/130/135
f 114/109/113 128/129/134 129/131/136
f 91/15/15 121/107/114 136/130/137
f 115/110/115 129/131/136 130/132/138
f 108/112/117 122/133/139 123/134/140
f 116/113/118 130/132/138 131/135/141
f 109/114/119 123/134/140 124/121/126
f 117/115/120 131/135/141 132/123/128
f 129/131/136 143/136/142 144/137/143
f 91/15/15 136/130/137 151/138/144
f 130/132/138 144/137/143 145/139/145
f 123/134/140 137/140/146 138/141/147
f 131/135/141 145/139/145 146/142/148
f 124/121/126 138/141/147 139/143/149
f 132/123/128 146/142/148 147/144/150
f 125/122/127 139/143/149 140/145/151
f 133/124/129 147/144/150 148/146/152
f 126/125/130 140/145/151 141/147/153
f 134/126/131 148/146/152 149/148/154
f 127/127/132 141/147/153 142/149/155
f 135/128/133 149/148/154 150/150/156
f 128/129/134 142/149/155 143/136/142
f 136/130/135 150/150/156 151/138/157
f 148/146/152 162/151/158 163/152/159
f 141/147/153 155/153/160 156/154/161
f 149/148/154 163/152/159 164/155/162
f 142/149/155 156/154/161 157/156/163
f 150/150/156 164/155/162 165/157/164
f 143/136/142 157/156/163 158/158/165
f 151/138/157 165/157/164 166/159/166
f 144/137/143 158/158/165 159/160/167
f 91/15/15 151/138/144 166/159/168
f 145/139/145 159/160/167 160/161/169
f 137/140/146 153/162/170 138/141/147
f 146/142/148 160/161/169 161/163/171
f 138/141/147 154/164/172 139/143/149
f 147/144/150 161/163/171 162/151/158
f 140/145/151 154/164/172 155/153/160
f 91/15/15 166/159/168 181/165/173
f 160/161/169 174/166/174 175/167/175
f 152/168/176 168/169/177 153/162/170
f 161/163/171 175/167/175 176/170/178
f 153/162/170 169/171/179 154/164/172
f 162/151/158 176/170/178 177/172/180
f 154/164/172 170/173/181 155/153/160
f 163/152/159 177/172/180 178/174/182
f 156/154/161 170/173/181 171/175/183
f 163/152/159 179/176/184 164/155/162
f 157/156/163 171/175/183 172/177/185
f 164/155/162 180/178/186 165/157/164
f 158/158/165 172/177/185 173/179/187
f 165/157/164 181/165/188 166/159/166
f 159/160/167 173/179/187 174/166/174
f 13/1/1 12/29/29 27/2/2
f 6/4/4 5/30/30 20/5/5
f 14/7/7 13/1/1 28/3/3
f 7/9/9 6/4/4 21/6/6
f 15/11/11 14/7/7 29/8/8
f 8/13/13 7/9/9 22/10/10
f 9/16/16 8/13/13 23/14/14
f 1/18/18 16/180/189 17/19/19
f 10/21/21 9/16/16 24/17/17
f 2/20/20 17/19/19 18/23/23
f 11/25/25 10/21/21 25/22/22
f 4/27/27 3/24/24 18/23/23
f 12/29/29 11/25/25 26/26/26
f 5/30/30 4/27/27 19/28/28
f 25/22/22 24/17/17 39/31/31
f 18/23/23 17/19/19 32/33/33
f 26/26/26 25/22/22 40/32/32
f 19/28/28 18/23/23 33/34/34
f 27/2/2 26/26/26 41/35/35
f 20/5/5 19/28/28 34/36/36
f 28/3/3 27/2/2 42/37/37
f 21/6/6 20/5/5 35/38/38
f 29/8/8 28/3/3 43/39/39
f 22/10/10 21/6/6 36/40/40
f 30/12/12 29/8/8 44/41/41
f 23/14/14 22/10/10 37/42/42
f 24/17/17 23/14/14 38/44/44
f 17/19/19 16/180/189 31/45/45
f 44/41/41 43/39/39 58/46/46
f 37/42/42 36/40/40 51/48/48
f 45/43/43 44/41/41 59/47/47
f 38/44/44 37/42/42 52/49/49
f 39/31/31 38/44/44 53/51/51
f 32/33/33 31/45/45 46/53/54
f 40/32/32 39/31/31 54/52/53
f 33/34/34 32/33/33 47/54/55
f 41/35/35 40/32/32 55/55/56
f 34/36/36 33/34/34 48/56/57
f 42/37/37 41/35/35 56/57/58
f 35/38/38 34/36/36 49/58/59
f 43/39/39 42/37/37 57/59/60
f 36/40/40 35/38/38 50/60/61
f 48/56/57 47/54/55 62/61/62
f 56/57/58 55/55/56 70/63/64
f 49/58/59 48/56/57 63/62/63
f 57/59/60 56/57/58 71/64/65
f 50/60/61 49/58/59 64/65/66
f 58/46/46 57/59/60 72/66/67
f 51/48/48 50/60/61 65/67/68
f 59/47/47 58/46/46 73/68/69
f 52/49/49 51/48/48 66/69/70
f 60/50/50 59/47/47 74/70/71
f 53/51/51 52/49/49 67/71/72
f 54/52/53 53/51/51 68/73/74
f 47/54/55 46/53/54 61/75/77
f 55/55/56 54/52/53 69/74/76
f 67/71/72 66/69/70 81/76/78
f 75/72/73 74/70/71 89/78/80
f 68/73/74 67/71/72 82/77/79
f 69/74/76 68/73/74 83/80/82
f 62/61/62 61/75/77 76/82/85
f 70/63/64 69/74/76 84/81/84
f 63/62/63 62/61/62 77/83/86
f 71/64/65 70/63/64 85/84/87
f 64/65/66 63/62/63 78/85/88
f 72/66/67 71/64/65 86/86/89
f 65/67/68 64/65/66 79/87/90
f 73/68/69 72/66/67 87/88/91
f 66/69/70 65/67/68 80/89/92
f 74/70/71 73/68/69 88/90/93
f 86/86/89 85/84/87 101/91/94
f 79/87/90 78/85/88 94/93/96
f 87/88/91 86/86/89 102/92/95
f 80/89/92 79/87/90 95/94/97
f 88/90/93 87/88/91 103/95/98
f 81/76/78 80/89/92 96/96/99
f 89/78/80 88/90/93 104/97/100
f 82/77/79 81/76/78 97/98/101
f 90/79/81 89/78/80 105/99/102
f 83/80/82 82/77/79 98/100/103
f 84/81/84 83/80/82 99/102/105
f 77/83/86 76/82/85 92/104/108
f 85/84/87 84/81/84 100/103/107
f 78/85/88 77/83/86 93/105/109
f 106/101/104 105/99/102 120/106/110
f 99/102/105 98/100/103 113/108/112
f 100/103/107 99/102/105 114/109/113
f 93/105/109 92/104/108 107/111/116
f 101/91/94 100/103/107 115/110/115
f 94/93/96 93/105/109 108/112/117
f 102/92/95 101/91/94 116/113/118
f 95/94/97 94/93/96 109/114/119
f 103/95/98 102/92/95 117/115/120
f 96/96/99 95/94/97 110/116/121
f 104/97/100 103/95/98 118/117/122
f 97/98/101 96/96/99 111/118/123
f 105/99/102 104/97/100 119/119/124
f 98/100/103 97/98/101 112/120/125
f 110/116/121 109/114/119 124/121/126
f 118/117/122 117/115/120 132/123/128
f 111/118/123 110/116/121 125/122/127
f 119/119/124 118/117/122 133/124/129
f 112/120/125 111/118/123 126/125/130
f 120/106/110 119/119/124 134/126/131
f 113/108/112 112/120/125 127/127/132
f 121/107/111 120/106/110 135/128/133
f 114/109/113 113/108/112 128/129/134
f 115/110/115 114/109/113 129/131/136
f 108/112/117 107/111/116 122/133/139
f 116/113/118 115/110/115 130/132/138
f 109/114/119 108/112/117 123/134/140
f 117/115/120 116/113/118 131/135/141
f 129/131/136 128/129/134 143/136/142
f 130/132/138 129/131/136 144/137/143
f 123/134/140 122/133/139 137/140/146
f 131/135/141 130/132/138 145/139/145
f 124/121/126 123/134/140 138/141/147
f 132/123/128 131/135/141 146/142/148
f 125/122/127 124/121/126 139/143/149
f 133/124/129 132/123/128 147/144/150
f 126/125/130 125/122/127 140/145/151
f 134/126/131 133/124/129 148/146/152
f 127/127/132 126/125/130 141/147/153
f 135/128/133 134/126/131 149/148/154
f 128/129/134 127/127/132 142/149/155
f 136/130/135 135/128/133 150/150/156
f 148/146/152 147/144/150 162/151/158
f 141/147/153 140/145/151 155/153/160
f 149/148/154 148/146/152 163/152/159
f 142/149/155 141/147/153 156/154/161
f 150/150/156 149/148/154 164/155/162
f 143/136/142 142/149/155 157/156/163
f 151/138/157 150/150/156 165/157/164
f 144/137/143 143/136/142 158/158/165
f 145/139/145 144/137/143 159/160/167
f 137/140/146 152/168/176 153/162/170
f 146/142/148 145/139/145 160/161/169
f 138/141/147 153/162/170 154/164/172
f 147/144/150 146/142/148 161/163/171
f 140/145/151 139/143/149 154/164/172
f 160/161/169 159/160/167 174/166/174
f 152/168/176 167/181/190 168/169/177
f 161/163/171 160/161/169 175/167/175
f 153/162/170 168/169/177 169/171/179
f 162/151/158 161/163/171 176/170/178
f 154/164/172 169/171/179 170/173/181
f 163/152/159 162/151/158 177/172/180
f 156/154/161 155/153/160 170/173/181
f 163/152/159 178/174/182 179/176/184
f 157/156/163 156/154/161 171/175/183
f 164/155/162 179/176/184 180/178/186
f 158/158/165 157/156/163 172/177/185
f 165/157/164 180/178/186 181/165/188
f 159/160/167 158/158/165 173/179/187
