# Blender 4.4.1
# www.blender.org
mtllib bossBananPeelLeft.mtl
o 球.002
v 0.000000 0.335133 -0.059141
v -0.011898 0.209272 -0.095415
v -0.081894 -0.020741 -0.151936
v -0.134232 -0.142558 -0.184309
v -0.187458 -0.223352 -0.213004
v -0.277169 -0.335586 -0.248831
v 0.004195 0.423203 -0.020368
v 0.008230 0.386775 -0.039954
v 0.011947 0.335127 -0.058004
v 0.014540 0.283905 -0.074212
v 0.005988 0.209278 -0.093712
v -0.019252 0.106654 -0.119163
v -0.060782 -0.020717 -0.149918
v -0.112868 -0.144717 -0.182350
v -0.166607 -0.226875 -0.211145
v -0.216771 -0.284800 -0.233420
v -0.259443 -0.337999 -0.247225
v -0.292206 -0.393097 -0.251601
v -0.330804 -0.444973 -0.246858
v -0.371054 -0.485752 -0.234648
v -0.393978 -0.510870 -0.217456
v 0.008230 0.423175 -0.019187
v 0.016143 0.386710 -0.037636
v 0.023436 0.335109 -0.054639
v 0.029164 0.283908 -0.069927
v 0.023196 0.209296 -0.088667
v -0.000114 0.106695 -0.113547
v -0.040444 -0.020647 -0.143944
v -0.092281 -0.146859 -0.176351
v -0.146520 -0.230537 -0.205325
v -0.197851 -0.288411 -0.227939
v -0.242359 -0.340556 -0.242258
v -0.277616 -0.394435 -0.247339
v -0.318185 -0.445471 -0.243489
v -0.362533 -0.485866 -0.232322
v -0.389838 -0.510879 -0.216271
v 0.011947 0.423134 -0.017267
v 0.023436 0.386613 -0.033871
v 0.034023 0.335084 -0.049174
v 0.042643 0.283913 -0.062969
v 0.039063 0.209322 -0.080475
v 0.017543 0.106756 -0.104429
v -0.021667 -0.020544 -0.134246
v -0.073271 -0.148885 -0.166546
v -0.127978 -0.234187 -0.195772
v -0.180385 -0.292063 -0.218941
v -0.226583 -0.343160 -0.234125
v -0.264140 -0.395801 -0.240386
v -0.306420 -0.445974 -0.238006
v -0.354571 -0.485977 -0.228542
v -0.385995 -0.510886 -0.214347
v 0.015206 0.423085 -0.014685
v 0.029828 0.386500 -0.028805
v 0.043304 0.335056 -0.041819
v 0.054459 0.283918 -0.053606
v 0.052977 0.209353 -0.069453
v 0.033034 0.106828 -0.092164
v -0.005184 -0.020422 -0.121203
v -0.056581 -0.150723 -0.153320
v -0.111709 -0.237683 -0.182862
v -0.165061 -0.295616 -0.206782
v -0.212737 -0.345711 -0.223149
v -0.252307 -0.397143 -0.231016
v -0.295986 -0.446469 -0.230626
v -0.347491 -0.486086 -0.223456
v -0.382602 -0.510893 -0.211757
v 0.017881 0.423036 -0.011538
v 0.035074 0.386386 -0.022632
v 0.050920 0.335029 -0.032857
v 0.064157 0.283923 -0.042197
v 0.064401 0.209384 -0.056025
v 0.045759 0.106899 -0.077226
v 0.008362 -0.020300 -0.105324
v -0.042868 -0.152326 -0.137190
v -0.098357 -0.240903 -0.167102
v -0.152487 -0.298935 -0.191939
v -0.201369 -0.348114 -0.209760
v -0.242587 -0.398415 -0.219598
v -0.287308 -0.446940 -0.221638
v -0.341584 -0.486189 -0.217264
v -0.379796 -0.510899 -0.208604
v -0.403273 -0.519230 -0.197670
v -0.019868 0.422995 -0.007947
v -0.038972 0.386291 -0.015589
v -0.056579 0.335007 -0.022632
v -0.072659 0.283927 -0.029181
v -0.096460 0.209410 -0.040711
v -0.132954 0.106960 -0.060194
v -0.181327 -0.020196 -0.087224
v -0.234957 -0.135532 -0.117935
v -0.285849 -0.212989 -0.147666
v -0.329003 -0.271582 -0.173572
v -0.360624 -0.328675 -0.193470
v -0.378641 -0.388078 -0.206038
v -0.402164 -0.442949 -0.211185
v -0.419365 -0.485186 -0.210153
v -0.418063 -0.510790 -0.205003
v -0.017881 0.423036 -0.011538
v -0.035074 0.386386 -0.022632
v -0.050920 0.335029 -0.032857
v -0.065460 0.283923 -0.042197
v -0.088012 0.209384 -0.056025
v -0.123594 0.106899 -0.077226
v -0.171421 -0.020299 -0.105324
v -0.224879 -0.135530 -0.136402
v -0.275984 -0.212911 -0.165789
v -0.319725 -0.271493 -0.190651
v -0.352281 -0.328627 -0.208845
v -0.371565 -0.388079 -0.219113
v -0.396739 -0.442974 -0.221452
v -0.415624 -0.485206 -0.217218
v -0.416124 -0.510796 -0.208599
v -0.015206 0.423085 -0.014685
v -0.029828 0.386500 -0.028805
v -0.043303 0.335056 -0.041819
v -0.055771 0.283918 -0.053606
v -0.076639 0.209353 -0.069453
v -0.110988 0.106828 -0.092164
v -0.158077 -0.020422 -0.121203
v -0.211342 -0.136082 -0.152633
v -0.262750 -0.213643 -0.181734
v -0.307277 -0.272166 -0.205681
v -0.341074 -0.329111 -0.222370
v -0.361998 -0.388363 -0.230604
v -0.389162 -0.443110 -0.230469
v -0.410454 -0.485256 -0.223418
v -0.413492 -0.510806 -0.211753
v -0.011947 0.423134 -0.017267
v -0.023436 0.386613 -0.033871
v -0.034023 0.335084 -0.049174
v -0.043964 0.283913 -0.062969
v -0.062776 0.209322 -0.080475
v -0.095615 0.106756 -0.104429
v -0.141795 -0.020544 -0.134246
v -0.194848 -0.137149 -0.165995
v -0.246639 -0.215147 -0.194878
v -0.292118 -0.273568 -0.218073
v -0.327417 -0.330103 -0.233513
v -0.350299 -0.388912 -0.240063
v -0.379699 -0.443346 -0.237883
v -0.404037 -0.485331 -0.228512
v -0.410262 -0.510819 -0.214343
v -0.008230 0.423175 -0.019187
v -0.016143 0.386710 -0.037636
v -0.023436 0.335109 -0.054639
v -0.030492 0.283908 -0.069927
v -0.046952 0.209296 -0.088667
v -0.078059 0.106695 -0.113547
v -0.123189 -0.020647 -0.143944
v -0.176016 -0.138654 -0.175966
v -0.228249 -0.217344 -0.204706
v -0.274811 -0.275637 -0.227340
v -0.311814 -0.331557 -0.241836
v -0.336930 -0.389697 -0.247117
v -0.368697 -0.443667 -0.243404
v -0.396602 -0.485424 -0.232301
v -0.406551 -0.510833 -0.216269
v -0.004195 0.423203 -0.020368
v -0.008230 0.386775 -0.039954
v -0.011947 0.335127 -0.058004
v -0.015872 0.283905 -0.074212
v -0.029773 0.209278 -0.093712
v -0.058988 0.106654 -0.119163
v -0.102965 -0.020717 -0.149918
v -0.155552 -0.140497 -0.182152
v -0.208270 -0.220125 -0.210828
v -0.256004 -0.278277 -0.233114
v -0.294851 -0.333410 -0.247010
v -0.322432 -0.390684 -0.251487
v -0.356566 -0.444056 -0.246815
v -0.388421 -0.485528 -0.234638
v -0.402498 -0.510847 -0.217455
v 0.000000 0.423213 -0.020767
v 0.000000 0.386798 -0.040737
v -0.000667 0.283904 -0.075659
v -0.039132 0.106640 -0.121059
v -0.236408 -0.281376 -0.235168
v -0.307339 -0.391831 -0.253002
v -0.343769 -0.444497 -0.247982
v -0.379796 -0.485639 -0.235431
v -0.398253 -0.510859 -0.217856
vn 0.0473 0.3131 -0.9486
vn 0.2064 0.1399 -0.9684
vn 0.0377 0.2740 -0.9610
vn 0.0004 0.3210 -0.9471
vn 0.1744 0.4082 -0.8961
vn 0.1795 0.3204 -0.9301
vn 0.1863 0.0372 -0.9818
vn 0.0104 0.1533 -0.9881
vn 0.1864 0.2657 -0.9459
vn 0.0040 0.2805 -0.9599
vn 0.1761 -0.1220 -0.9768
vn -0.0015 -0.0112 -0.9999
vn 0.1885 0.2092 -0.9595
vn 0.0036 0.2477 -0.9688
vn 0.1524 -0.3120 -0.9378
vn -0.0082 -0.1891 -0.9819
vn 0.1884 0.1815 -0.9652
vn 0.0025 0.2377 -0.9713
vn 0.1359 -0.5218 -0.8422
vn -0.0150 -0.4209 -0.9070
vn 0.1895 0.1708 -0.9669
vn 0.0034 0.2433 -0.9699
vn 0.0976 -0.7994 -0.5928
vn -0.0302 -0.5561 -0.8306
vn 0.2070 0.1802 -0.9616
vn 0.0287 0.2796 -0.9597
vn -0.0851 -0.9407 -0.3283
vn 0.0021 -0.9239 -0.3826
vn 0.2167 0.1857 -0.9584
vn -0.0000 0.4078 -0.9131
vn 0.1670 0.4812 -0.8605
vn 0.3809 0.0456 -0.9235
vn 0.3283 0.4822 -0.8122
vn 0.3427 0.4093 -0.8456
vn 0.3670 -0.0095 -0.9302
vn 0.3530 0.3204 -0.8790
vn 0.3517 -0.0909 -0.9317
vn 0.3642 0.2503 -0.8970
vn 0.3399 -0.2323 -0.9113
vn 0.3702 0.1673 -0.9138
vn 0.2933 -0.4221 -0.8578
vn 0.3714 0.1195 -0.9207
vn 0.2606 -0.6092 -0.7490
vn 0.3728 0.0917 -0.9234
vn 0.1913 -0.8294 -0.5249
vn 0.3819 0.0729 -0.9213
vn 0.4109 -0.5164 -0.7513
vn 0.5434 0.0542 -0.8377
vn 0.3582 -0.6814 -0.6383
vn 0.5440 0.0097 -0.8390
vn 0.2659 -0.8545 -0.4462
vn 0.5436 -0.0365 -0.8385
vn 0.5289 -0.0978 -0.8431
vn 0.4780 0.4838 -0.7331
vn 0.4988 0.4110 -0.7631
vn 0.5078 -0.1641 -0.8457
vn 0.5147 0.3211 -0.7950
vn 0.4959 -0.2234 -0.8392
vn 0.5314 0.2346 -0.8140
vn 0.4813 -0.3372 -0.8091
vn 0.5417 0.1233 -0.8315
vn 0.6105 0.4856 -0.6257
vn 0.6369 0.4130 -0.6510
vn 0.6185 -0.3123 -0.7211
vn 0.6588 0.3221 -0.6799
vn 0.6098 -0.3513 -0.7104
vn 0.6815 0.2190 -0.6983
vn 0.5943 -0.4327 -0.6779
vn 0.6953 0.0790 -0.7143
vn 0.5045 -0.5945 -0.6261
vn 0.6959 -0.0115 -0.7181
vn 0.4306 -0.7388 -0.5184
vn 0.6936 -0.0712 -0.7168
vn 0.3225 -0.8749 -0.3613
vn 0.6827 -0.1417 -0.7168
vn 0.6507 -0.2346 -0.7222
vn 0.7609 -0.0348 -0.6479
vn 0.4683 -0.7539 -0.4608
vn 0.7572 -0.1019 -0.6451
vn 0.3632 -0.8724 -0.3270
vn 0.7422 -0.1729 -0.6476
vn 0.7060 -0.2744 -0.6528
vn 0.6703 0.4848 -0.5619
vn 0.6981 0.4113 -0.5861
vn 0.6658 -0.3722 -0.6467
vn 0.7221 0.3212 -0.6127
vn 0.6545 -0.4155 -0.6316
vn 0.7440 0.2156 -0.6324
vn 0.6475 -0.4633 -0.6050
vn 0.7599 0.0673 -0.6466
vn 0.5610 -0.6001 -0.5703
vn -0.8180 0.3680 -0.4421
vn -0.7779 0.3344 -0.5320
vn -0.8257 0.3565 -0.4372
vn -0.8075 0.3870 -0.4452
vn -0.7695 0.3545 -0.5313
vn -0.7594 0.3868 -0.5232
vn -0.8286 0.0674 -0.5558
vn -0.8812 0.0710 -0.4673
vn -0.7884 0.4360 -0.4340
vn -0.7412 0.4363 -0.5102
vn -0.8274 -0.1636 -0.5373
vn -0.8719 -0.1388 -0.4697
vn -0.7387 0.5401 -0.4033
vn -0.6909 0.5413 -0.4791
vn -0.4016 -0.8903 -0.2149
vn -0.3717 -0.8934 -0.2524
vn -0.6842 0.6285 -0.3700
vn -0.6383 0.6282 -0.4449
vn -0.7668 0.4865 -0.4187
vn -0.7512 0.4152 -0.5131
vn -0.7988 0.4136 -0.4368
vn -0.7034 0.6013 -0.3791
vn -0.6592 0.5975 -0.4565
vn -0.7762 0.3322 -0.5358
vn -0.8256 0.3318 -0.4563
vn -0.7852 0.4508 -0.4246
vn -0.7389 0.4450 -0.5060
vn -0.7772 0.3273 -0.5374
vn -0.8269 0.3271 -0.4574
vn -0.7684 0.3574 -0.5309
vn -0.8185 0.3544 -0.4521
vn -0.7205 0.4874 -0.4933
vn -0.6369 0.4130 -0.6510
vn -0.5523 0.5791 -0.5996
vn -0.6565 0.3298 -0.6784
vn -0.6243 0.4276 -0.6538
vn -0.6570 0.3230 -0.6812
vn -0.6536 0.3223 -0.6848
vn -0.6516 0.3470 -0.6745
vn -0.6628 0.2700 -0.6984
vn -0.6443 0.3770 -0.6654
vn -0.7000 -0.0033 -0.7141
vn -0.6300 0.4239 -0.6507
vn -0.6990 -0.2264 -0.6783
vn -0.5817 0.5251 -0.6212
vn -0.3071 -0.8982 -0.3144
vn -0.5334 0.6099 -0.5861
vn -0.5069 0.3567 -0.7848
vn -0.5424 -0.0941 -0.8349
vn -0.4974 0.3977 -0.7710
vn -0.5434 -0.3030 -0.7829
vn -0.4530 0.4902 -0.7447
vn -0.2323 -0.9041 -0.3587
vn -0.4109 0.5698 -0.7117
vn -0.6105 0.4856 -0.6257
vn -0.4988 0.4110 -0.7631
vn -0.4271 0.5386 -0.7263
vn -0.5131 0.3271 -0.7936
vn -0.4883 0.3898 -0.7808
vn -0.5132 0.3158 -0.7981
vn -0.5151 0.2651 -0.8151
vn -0.5108 0.3319 -0.7930
vn -0.5199 0.1790 -0.8353
vn -0.2850 0.4747 -0.8327
vn -0.3518 0.3246 -0.8780
vn -0.3341 0.3313 -0.8824
vn -0.3513 0.3059 -0.8849
vn -0.3565 0.1879 -0.9152
vn -0.3515 0.3099 -0.8834
vn -0.3560 0.0662 -0.9322
vn -0.3505 0.3263 -0.8779
vn -0.3665 -0.1993 -0.9088
vn -0.3454 0.3584 -0.8673
vn -0.3712 -0.3878 -0.8437
vn -0.3064 0.4369 -0.8457
vn -0.1527 -0.9105 -0.3842
vn -0.2717 0.5071 -0.8179
vn -0.4780 0.4838 -0.7331
vn -0.3427 0.4093 -0.8456
vn -0.1861 -0.3110 -0.9320
vn -0.1770 0.3065 -0.9353
vn -0.1959 -0.4740 -0.8584
vn -0.1445 0.3662 -0.9192
vn -0.0732 -0.9173 -0.3915
vn -0.1178 0.4213 -0.8993
vn -0.3283 0.4822 -0.8122
vn -0.1744 0.4082 -0.8961
vn -0.1286 0.3864 -0.9133
vn -0.1787 0.3225 -0.9296
vn -0.1658 0.2523 -0.9533
vn -0.1771 0.2940 -0.9393
vn -0.1826 0.0941 -0.9787
vn -0.1783 0.2816 -0.9428
vn -0.1813 -0.0599 -0.9816
vn -0.1791 0.2864 -0.9412
vn -0.1670 0.4812 -0.8606
vn -0.0000 0.4808 -0.8768
vt 0.108056 0.325581
vt 0.106059 0.260225
vt 0.123130 0.254784
vt 0.161455 0.903952
vt 0.172551 0.953774
vt 0.151168 0.908262
vt 0.119124 0.200389
vt 0.133769 0.195578
vt 0.131163 0.862624
vt 0.144225 0.857121
vt 0.125039 0.146237
vt 0.137124 0.141985
vt 0.111879 0.792949
vt 0.127376 0.786229
vt 0.136327 0.093668
vt 0.146293 0.089842
vt 0.095583 0.691772
vt 0.112857 0.684027
vt 0.151967 0.049184
vt 0.158393 0.046908
vt 0.082703 0.561600
vt 0.101124 0.553004
vt 0.160139 0.021188
vt 0.163247 0.020385
vt 0.077945 0.428766
vt 0.097442 0.421429
vt 0.162032 0.002366
vt 0.089067 0.331755
vt 0.179455 0.950813
vt 0.189954 0.988369
vt 0.070184 0.338363
vt 0.186458 0.990273
vt 0.165862 0.957235
vt 0.088844 0.265913
vt 0.141171 0.913190
vt 0.104222 0.205215
vt 0.118445 0.868788
vt 0.112714 0.150172
vt 0.096729 0.800298
vt 0.126034 0.096956
vt 0.078648 0.700126
vt 0.145187 0.050911
vt 0.064649 0.570812
vt 0.156880 0.021575
vt 0.058786 0.436709
vt 0.115443 0.099519
vt 0.061991 0.708867
vt 0.138122 0.051950
vt 0.046866 0.580327
vt 0.153520 0.021497
vt 0.039885 0.444930
vt 0.051337 0.345054
vt 0.183142 0.992456
vt 0.159424 0.961198
vt 0.071403 0.271519
vt 0.131499 0.918722
vt 0.088958 0.209807
vt 0.106066 0.875566
vt 0.100044 0.153607
vt 0.081891 0.808144
vt 0.180039 0.994912
vt 0.153275 0.965671
vt 0.053666 0.276668
vt 0.122187 0.924851
vt 0.073271 0.213861
vt 0.093998 0.882933
vt 0.086954 0.156330
vt 0.067291 0.816370
vt 0.104610 0.101167
vt 0.045515 0.717774
vt 0.130893 0.052159
vt 0.029224 0.589840
vt 0.150128 0.020907
vt 0.021117 0.453099
vt 0.032417 0.351462
vt 0.029107 0.726637
vt 0.123668 0.051410
vt 0.011605 0.599055
vt 0.146796 0.019762
vt 0.002366 0.460898
vt 0.013315 0.357243
vt 0.177182 0.997634
vt 0.147453 0.970671
vt 0.035563 0.280974
vt 0.113307 0.931551
vt 0.057172 0.217030
vt 0.082200 0.890875
vt 0.073451 0.158104
vt 0.052834 0.824866
vt 0.093611 0.101714
vt 0.211664 0.118490
vt 0.192845 0.068703
vt 0.202431 0.065067
vt 0.222157 0.660585
vt 0.209010 0.766371
vt 0.203655 0.661146
vt 0.186440 0.030493
vt 0.192105 0.026347
vt 0.218050 0.528554
vt 0.198337 0.528601
vt 0.175942 0.011001
vt 0.177875 0.007953
vt 0.218689 0.403885
vt 0.198631 0.402946
vt 0.224185 0.311997
vt 0.204841 0.310575
vt 0.216890 0.983910
vt 0.216155 0.943872
vt 0.223769 0.944271
vt 0.227425 0.239556
vt 0.209451 0.239141
vt 0.215648 0.892556
vt 0.226723 0.892467
vt 0.223754 0.175945
vt 0.207797 0.177483
vt 0.213290 0.841476
vt 0.227425 0.841017
vt 0.198464 0.121465
vt 0.225660 0.765731
vt 0.212990 0.983506
vt 0.208604 0.944114
vt 0.191763 0.240149
vt 0.204588 0.893401
vt 0.192421 0.179895
vt 0.199173 0.842858
vt 0.185713 0.124979
vt 0.192356 0.768183
vt 0.183592 0.072701
vt 0.185137 0.663131
vt 0.181031 0.034328
vt 0.178527 0.530350
vt 0.173795 0.013609
vt 0.178292 0.403619
vt 0.185354 0.310797
vt 0.166702 0.666513
vt 0.175665 0.037885
vt 0.158758 0.533797
vt 0.171450 0.015824
vt 0.157843 0.405920
vt 0.165872 0.312568
vt 0.209059 0.983474
vt 0.201135 0.944960
vt 0.174370 0.242377
vt 0.193598 0.894984
vt 0.177467 0.183021
vt 0.185142 0.845152
vt 0.173284 0.128930
vt 0.175781 0.771149
vt 0.174467 0.076945
vt 0.157193 0.245665
vt 0.182716 0.897287
vt 0.162801 0.186754
vt 0.171264 0.848326
vt 0.161104 0.133184
vt 0.159375 0.775208
vt 0.165293 0.081313
vt 0.148457 0.671215
vt 0.170180 0.041184
vt 0.139194 0.538846
vt 0.168910 0.017685
vt 0.137462 0.409767
vt 0.146468 0.315747
vt 0.205126 0.983798
vt 0.193770 0.946377
vt 0.164451 0.044210
vt 0.119958 0.545326
vt 0.166175 0.019209
vt 0.117295 0.415007
vt 0.127189 0.320157
vt 0.201219 0.984462
vt 0.186534 0.948336
vt 0.140144 0.249859
vt 0.171987 0.900285
vt 0.148281 0.190982
vt 0.157606 0.852334
vt 0.149096 0.137584
vt 0.143219 0.780273
vt 0.155933 0.085665
vt 0.130489 0.677109
vt 0.197366 0.985452
vt 0.193598 0.986753
s 1
usemtl peelLeft
f 5/1/1 16/2/2 177/3/3
f 1/4/4 8/5/5 9/6/6
f 177/3/3 17/7/7 6/8/8
f 1/4/4 10/9/9 175/10/10
f 6/8/8 18/11/11 178/12/12
f 175/10/10 11/13/13 2/14/14
f 178/12/12 19/15/15 179/16/16
f 2/14/14 12/17/17 176/18/18
f 179/16/16 20/19/19 180/20/20
f 176/18/18 13/21/21 3/22/22
f 180/20/20 21/23/23 181/24/24
f 3/22/22 14/25/25 4/26/26
f 82/27/27 181/24/28 21/23/23
f 4/26/26 15/28/29 5/1/1
f 174/29/30 7/30/31 8/5/5
f 14/25/25 30/31/32 15/28/29
f 8/5/5 22/32/33 23/33/34
f 15/28/29 31/34/35 16/2/2
f 9/6/6 23/33/34 24/35/36
f 16/2/2 32/36/37 17/7/7
f 9/6/6 25/37/38 10/9/9
f 17/7/7 33/38/39 18/11/11
f 10/9/9 26/39/40 11/13/13
f 18/11/11 34/40/41 19/15/15
f 11/13/13 27/41/42 12/17/17
f 19/15/15 35/42/43 20/19/19
f 12/17/17 28/43/44 13/21/21
f 20/19/19 36/44/45 21/23/23
f 13/21/21 29/45/46 14/25/25
f 82/27/27 21/23/23 36/44/45
f 33/38/39 49/46/47 34/40/41
f 26/39/40 42/47/48 27/41/42
f 34/40/41 50/48/49 35/42/43
f 27/41/42 43/49/50 28/43/44
f 35/42/43 51/50/51 36/44/45
f 28/43/44 44/51/52 29/45/46
f 82/27/27 36/44/45 51/50/51
f 29/45/46 45/52/53 30/31/32
f 23/33/34 37/53/54 38/54/55
f 30/31/32 46/55/56 31/34/35
f 24/35/36 38/54/55 39/56/57
f 31/34/35 47/57/58 32/36/37
f 24/35/36 40/58/59 25/37/38
f 32/36/37 48/59/60 33/38/39
f 25/37/38 41/60/61 26/39/40
f 38/54/55 52/61/62 53/62/63
f 45/52/53 61/63/64 46/55/56
f 39/56/57 53/62/63 54/64/65
f 46/55/56 62/65/66 47/57/58
f 39/56/57 55/66/67 40/58/59
f 47/57/58 63/67/68 48/59/60
f 40/58/59 56/68/69 41/60/61
f 48/59/60 64/69/70 49/46/47
f 41/60/61 57/70/71 42/47/48
f 49/46/47 65/71/72 50/48/49
f 42/47/48 58/72/73 43/49/50
f 50/48/49 66/73/74 51/50/51
f 43/49/50 59/74/75 44/51/52
f 82/27/27 51/50/51 66/73/74
f 44/51/52 60/75/76 45/52/53
f 56/68/69 72/76/77 57/70/71
f 64/69/70 80/77/78 65/71/72
f 57/70/71 73/78/79 58/72/73
f 65/71/72 81/79/80 66/73/74
f 58/72/73 74/80/81 59/74/75
f 82/27/27 66/73/74 81/79/80
f 59/74/75 75/81/82 60/75/76
f 53/62/63 67/82/83 68/83/84
f 60/75/76 76/84/85 61/63/64
f 54/64/65 68/83/84 69/85/86
f 61/63/64 77/86/87 62/65/66
f 54/64/65 70/87/88 55/66/67
f 62/65/66 78/88/89 63/67/68
f 55/66/67 71/89/90 56/68/69
f 63/67/68 79/90/91 64/69/70
f 94/91/92 110/92/93 95/93/94
f 88/94/95 102/95/96 103/96/97
f 95/93/94 111/97/98 96/98/99
f 89/99/100 103/96/97 104/100/101
f 96/98/99 112/101/102 97/102/103
f 90/103/104 104/100/101 105/104/105
f 82/27/27 97/102/106 112/101/107
f 91/105/108 105/104/105 106/106/109
f 83/107/110 99/108/111 84/109/112
f 92/110/113 106/106/109 107/111/114
f 84/109/112 100/112/115 85/113/116
f 93/114/117 107/111/114 108/115/118
f 85/113/116 101/116/119 86/117/120
f 94/91/92 108/115/118 109/118/121
f 86/117/120 102/95/96 87/119/122
f 98/120/123 114/121/124 99/108/111
f 106/106/109 122/122/125 107/111/114
f 99/108/111 115/123/126 100/112/115
f 107/111/114 123/124/127 108/115/118
f 100/112/115 116/125/128 101/116/119
f 108/115/118 124/126/129 109/118/121
f 101/116/119 117/127/130 102/95/96
f 109/118/121 125/128/131 110/92/93
f 102/95/96 118/129/132 103/96/97
f 110/92/93 126/130/133 111/97/98
f 103/96/97 119/131/134 104/100/101
f 111/97/98 127/132/135 112/101/102
f 104/100/101 120/133/136 105/104/105
f 82/27/27 112/101/107 127/132/137
f 105/104/105 121/134/138 106/106/109
f 117/127/130 133/135/139 118/129/132
f 125/128/131 141/136/140 126/130/133
f 118/129/132 134/137/141 119/131/134
f 126/130/133 142/138/142 127/132/135
f 119/131/134 135/139/143 120/133/136
f 82/27/27 127/132/137 142/138/144
f 120/133/136 136/140/145 121/134/138
f 113/141/146 129/142/147 114/121/124
f 121/134/138 137/143/148 122/122/125
f 114/121/124 130/144/149 115/123/126
f 122/122/125 138/145/150 123/124/127
f 115/123/126 131/146/151 116/125/128
f 123/124/127 139/147/152 124/126/129
f 116/125/128 132/148/153 117/127/130
f 124/126/129 140/149/154 125/128/131
f 136/140/145 152/150/155 137/143/148
f 129/142/147 145/151/156 130/144/149
f 137/143/148 153/152/157 138/145/150
f 130/144/149 146/153/158 131/146/151
f 138/145/150 154/154/159 139/147/152
f 131/146/151 147/155/160 132/148/153
f 139/147/152 155/156/161 140/149/154
f 132/148/153 148/157/162 133/135/139
f 140/149/154 156/158/163 141/136/140
f 133/135/139 149/159/164 134/137/141
f 141/136/140 157/160/165 142/138/142
f 134/137/141 150/161/166 135/139/143
f 82/27/27 142/138/144 157/160/167
f 135/139/143 151/162/168 136/140/145
f 128/163/169 144/164/170 129/142/147
f 155/156/161 171/165/171 156/158/163
f 148/157/162 164/166/172 149/159/164
f 156/158/163 172/167/173 157/160/165
f 149/159/164 165/168/174 150/161/166
f 82/27/27 157/160/167 172/167/175
f 150/161/166 166/169/176 151/162/168
f 143/170/177 159/171/178 144/164/170
f 151/162/168 167/172/179 152/150/155
f 144/164/170 160/173/180 145/151/156
f 152/150/155 168/174/181 153/152/157
f 145/151/156 161/175/182 146/153/158
f 153/152/157 169/176/183 154/154/159
f 146/153/158 162/177/184 147/155/160
f 154/154/159 170/178/185 155/156/161
f 147/155/160 163/179/186 148/157/162
f 159/171/178 1/4/4 160/173/180
f 167/172/179 6/8/8 168/174/181
f 160/173/180 175/10/10 161/175/182
f 168/174/181 178/12/12 169/176/183
f 161/175/182 2/14/14 162/177/184
f 169/176/183 179/16/16 170/178/185
f 162/177/184 176/18/18 163/179/186
f 170/178/185 180/20/20 171/165/171
f 163/179/186 3/22/22 164/166/172
f 171/165/171 181/24/24 172/167/173
f 164/166/172 4/26/26 165/168/174
f 82/27/27 172/167/175 181/24/28
f 165/168/174 5/1/1 166/169/176
f 158/180/187 174/29/30 159/171/178
f 166/169/176 177/3/3 167/172/179
f 5/1/1 15/28/29 16/2/2
f 1/4/4 174/29/30 8/5/5
f 177/3/3 16/2/2 17/7/7
f 1/4/4 9/6/6 10/9/9
f 6/8/8 17/7/7 18/11/11
f 175/10/10 10/9/9 11/13/13
f 178/12/12 18/11/11 19/15/15
f 2/14/14 11/13/13 12/17/17
f 179/16/16 19/15/15 20/19/19
f 176/18/18 12/17/17 13/21/21
f 180/20/20 20/19/19 21/23/23
f 3/22/22 13/21/21 14/25/25
f 4/26/26 14/25/25 15/28/29
f 174/29/30 173/181/188 7/30/31
f 14/25/25 29/45/46 30/31/32
f 8/5/5 7/30/31 22/32/33
f 15/28/29 30/31/32 31/34/35
f 9/6/6 8/5/5 23/33/34
f 16/2/2 31/34/35 32/36/37
f 9/6/6 24/35/36 25/37/38
f 17/7/7 32/36/37 33/38/39
f 10/9/9 25/37/38 26/39/40
f 18/11/11 33/38/39 34/40/41
f 11/13/13 26/39/40 27/41/42
f 19/15/15 34/40/41 35/42/43
f 12/17/17 27/41/42 28/43/44
f 20/19/19 35/42/43 36/44/45
f 13/21/21 28/43/44 29/45/46
f 33/38/39 48/59/60 49/46/47
f 26/39/40 41/60/61 42/47/48
f 34/40/41 49/46/47 50/48/49
f 27/41/42 42/47/48 43/49/50
f 35/42/43 50/48/49 51/50/51
f 28/43/44 43/49/50 44/51/52
f 29/45/46 44/51/52 45/52/53
f 23/33/34 22/32/33 37/53/54
f 30/31/32 45/52/53 46/55/56
f 24/35/36 23/33/34 38/54/55
f 31/34/35 46/55/56 47/57/58
f 24/35/36 39/56/57 40/58/59
f 32/36/37 47/57/58 48/59/60
f 25/37/38 40/58/59 41/60/61
f 38/54/55 37/53/54 52/61/62
f 45/52/53 60/75/76 61/63/64
f 39/56/57 38/54/55 53/62/63
f 46/55/56 61/63/64 62/65/66
f 39/56/57 54/64/65 55/66/67
f 47/57/58 62/65/66 63/67/68
f 40/58/59 55/66/67 56/68/69
f 48/59/60 63/67/68 64/69/70
f 41/60/61 56/68/69 57/70/71
f 49/46/47 64/69/70 65/71/72
f 42/47/48 57/70/71 58/72/73
f 50/48/49 65/71/72 66/73/74
f 43/49/50 58/72/73 59/74/75
f 44/51/52 59/74/75 60/75/76
f 56/68/69 71/89/90 72/76/77
f 64/69/70 79/90/91 80/77/78
f 57/70/71 72/76/77 73/78/79
f 65/71/72 80/77/78 81/79/80
f 58/72/73 73/78/79 74/80/81
f 59/74/75 74/80/81 75/81/82
f 53/62/63 52/61/62 67/82/83
f 60/75/76 75/81/82 76/84/85
f 54/64/65 53/62/63 68/83/84
f 61/63/64 76/84/85 77/86/87
f 54/64/65 69/85/86 70/87/88
f 62/65/66 77/86/87 78/88/89
f 55/66/67 70/87/88 71/89/90
f 63/67/68 78/88/89 79/90/91
f 94/91/92 109/118/121 110/92/93
f 88/94/95 87/119/122 102/95/96
f 95/93/94 110/92/93 111/97/98
f 89/99/100 88/94/95 103/96/97
f 96/98/99 111/97/98 112/101/102
f 90/103/104 89/99/100 104/100/101
f 91/105/108 90/103/104 105/104/105
f 83/107/110 98/120/123 99/108/111
f 92/110/113 91/105/108 106/106/109
f 84/109/112 99/108/111 100/112/115
f 93/114/117 92/110/113 107/111/114
f 85/113/116 100/112/115 101/116/119
f 94/91/92 93/114/117 108/115/118
f 86/117/120 101/116/119 102/95/96
f 98/120/123 113/141/146 114/121/124
f 106/106/109 121/134/138 122/122/125
f 99/108/111 114/121/124 115/123/126
f 107/111/114 122/122/125 123/124/127
f 100/112/115 115/123/126 116/125/128
f 108/115/118 123/124/127 124/126/129
f 101/116/119 116/125/128 117/127/130
f 109/118/121 124/126/129 125/128/131
f 102/95/96 117/127/130 118/129/132
f 110/92/93 125/128/131 126/130/133
f 103/96/97 118/129/132 119/131/134
f 111/97/98 126/130/133 127/132/135
f 104/100/101 119/131/134 120/133/136
f 105/104/105 120/133/136 121/134/138
f 117/127/130 132/148/153 133/135/139
f 125/128/131 140/149/154 141/136/140
f 118/129/132 133/135/139 134/137/141
f 126/130/133 141/136/140 142/138/142
f 119/131/134 134/137/141 135/139/143
f 120/133/136 135/139/143 136/140/145
f 113/141/146 128/163/169 129/142/147
f 121/134/138 136/140/145 137/143/148
f 114/121/124 129/142/147 130/144/149
f 122/122/125 137/143/148 138/145/150
f 115/123/126 130/144/149 131/146/151
f 123/124/127 138/145/150 139/147/152
f 116/125/128 131/146/151 132/148/153
f 124/126/129 139/147/152 140/149/154
f 136/140/145 151/162/168 152/150/155
f 129/142/147 144/164/170 145/151/156
f 137/143/148 152/150/155 153/152/157
f 130/144/149 145/151/156 146/153/158
f 138/145/150 153/152/157 154/154/159
f 131/146/151 146/153/158 147/155/160
f 139/147/152 154/154/159 155/156/161
f 132/148/153 147/155/160 148/157/162
f 140/149/154 155/156/161 156/158/163
f 133/135/139 148/157/162 149/159/164
f 141/136/140 156/158/163 157/160/165
f 134/137/141 149/159/164 150/161/166
f 135/139/143 150/161/166 151/162/168
f 128/163/169 143/170/177 144/164/170
f 155/156/161 170/178/185 171/165/171
f 148/157/162 163/179/186 164/166/172
f 156/158/163 171/165/171 172/167/173
f 149/159/164 164/166/172 165/168/174
f 150/161/166 165/168/174 166/169/176
f 143/170/177 158/180/187 159/171/178
f 151/162/168 166/169/176 167/172/179
f 144/164/170 159/171/178 160/173/180
f 152/150/155 167/172/179 168/174/181
f 145/151/156 160/173/180 161/175/182
f 153/152/157 168/174/181 169/176/183
f 146/153/158 161/175/182 162/177/184
f 154/154/159 169/176/183 170/178/185
f 147/155/160 162/177/184 163/179/186
f 159/171/178 174/29/30 1/4/4
f 167/172/179 177/3/3 6/8/8
f 160/173/180 1/4/4 175/10/10
f 168/174/181 6/8/8 178/12/12
f 161/175/182 175/10/10 2/14/14
f 169/176/183 178/12/12 179/16/16
f 162/177/184 2/14/14 176/18/18
f 170/178/185 179/16/16 180/20/20
f 163/179/186 176/18/18 3/22/22
f 171/165/171 180/20/20 181/24/24
f 164/166/172 3/22/22 4/26/26
f 165/168/174 4/26/26 5/1/1
f 158/180/187 173/181/188 174/29/30
f 166/169/176 5/1/1 177/3/3
