# Blender 4.4.1
# www.blender.org
mtllib powerCBullet.mtl
o 立方体
v 0.169916 0.092436 -0.112054
v 0.170562 0.045943 -0.272434
v 0.048966 0.089701 -0.272374
v 0.144530 0.090125 -0.223344
v 0.139942 0.092206 -0.271750
v -0.048966 0.108153 0.276656
v 0.170562 -0.033528 0.276716
v 0.124874 0.092840 0.273552
v 0.164592 0.087022 0.226200
v 0.168046 0.098025 0.106422
v -0.170562 -0.033528 -0.272434
v -0.169916 0.106940 0.116330
v -0.164592 0.087022 -0.221918
v -0.124874 0.092840 -0.269270
v -0.168046 0.107726 -0.102142
v -0.170562 0.033528 0.276716
v -0.144528 0.100168 0.227628
v -0.139942 0.104112 0.276032
v -0.048966 -0.108802 -0.272374
v -0.169916 -0.106940 -0.112054
v -0.144530 -0.100168 -0.223344
v -0.139942 -0.075924 -0.271750
v 0.048966 -0.108802 0.276656
v -0.164592 -0.087022 0.226200
v -0.124874 -0.092840 0.273552
v -0.168046 -0.107726 0.106422
v 0.169916 -0.106940 0.116330
v 0.124874 -0.092840 -0.269270
v 0.164592 -0.087022 -0.221918
v 0.168046 -0.107726 -0.102142
v 0.144528 -0.100168 0.227628
v 0.139942 -0.075924 0.276032
vn -0.0368 -0.7133 -0.6999
vn 0.0114 0.6930 -0.7209
vn 0.2675 0.1700 -0.9484
vn 0.0057 0.7216 0.6923
vn -0.6957 0.7182 0.0158
vn -0.7100 -0.7037 -0.0273
vn -0.9911 -0.1143 -0.0677
vn 0.3447 0.7199 -0.6024
vn 0.4173 0.9051 -0.0819
vn 0.7740 0.5905 0.2287
vn 0.3075 0.6480 0.6968
vn 0.7511 0.2864 0.5948
vn -0.7979 0.5457 -0.2561
vn -0.2732 0.6567 -0.7030
vn -0.7511 0.2864 -0.5948
vn -0.5494 0.8273 0.1167
vn -0.4263 0.6836 0.5924
vn -0.2252 0.0895 0.9702
vn 0.7100 -0.7037 0.0272
vn 0.7122 0.7013 -0.0301
vn 0.9912 -0.1138 0.0671
vn -0.5218 -0.8154 -0.2508
vn -0.3901 -0.4829 -0.7840
vn -0.2023 -0.1377 -0.9696
vn -0.7979 -0.5457 0.2561
vn -0.3117 -0.6276 0.7134
vn -0.7511 -0.2864 0.5948
vn 0.0370 -0.7133 0.6999
vn 0.7998 -0.5402 -0.2616
vn 0.3171 -0.6233 -0.7148
vn 0.7550 -0.2622 -0.6010
vn 0.3934 -0.4838 0.7818
vn 0.5218 -0.8154 0.2508
vn 0.2028 -0.1381 0.9694
vn 0.7712 0.6365 0.0076
vn -0.7142 0.6994 -0.0264
vn -0.7437 -0.6678 0.0299
vn -0.9911 0.1143 0.0677
vn 0.9838 0.1685 -0.0611
vn 0.7437 -0.6678 -0.0299
vt 0.756168 0.853505
vt 0.479010 0.879367
vt 0.528579 0.756954
vt 0.256603 0.399508
vt 0.055783 0.597470
vt 0.144085 0.359913
vt 0.354381 0.051883
vt 0.196624 0.262579
vt 0.248974 0.029411
vt 0.490649 0.803444
vt 0.454805 0.802919
vt 0.101802 0.644034
vt 0.080234 0.648215
vt 0.364989 0.557159
vt 0.341475 0.513453
vt 0.476851 0.490322
vt 0.144766 0.099791
vt 0.142550 0.075817
vt 0.219985 0.342450
vt 0.266846 0.328477
vt 0.222696 0.316223
vt 0.301908 0.282566
vt 0.586914 0.513363
vt 0.418940 0.733563
vt 0.693674 0.138428
vt 0.715541 0.135674
vt 0.736648 0.188093
vt 0.744787 0.927761
vt 0.776909 0.923559
vt 0.704356 0.977837
vt 0.410974 0.220881
vt 0.432568 0.255051
vt 0.522948 0.373225
vt 0.641445 0.690976
vt 0.665496 0.731730
vt 0.512616 0.444601
vt 0.558728 0.431131
vt 0.625707 0.144043
vt 0.568220 0.995625
vt 0.262266 0.584031
vt 0.169034 0.633963
vt 0.017940 0.492696
vt 0.051290 0.411326
vt 0.412521 0.148768
vt 0.140130 0.165193
vt 0.422220 0.758336
vt 0.318340 0.567264
vt 0.004375 0.428826
vt 0.199284 0.285309
vt 0.647404 0.619195
vt 0.359116 0.628676
vt 0.329587 0.004375
vt 0.529796 0.187789
vt 0.472393 0.264888
vt 0.480922 0.201959
vt 0.728787 0.374722
vt 0.767572 0.295485
vt 0.776909 0.360320
vt 0.584063 0.488008
vt 0.633074 0.419264
s 1
usemtl sekken
f 19/1/1 3/2/2 2/3/3
f 6/4/4 3/5/2 12/6/5
f 20/7/6 12/8/5 11/9/7
f 5/10/8 4/11/9 2/3/3
f 4/12/9 5/13/8 3/5/2
f 9/14/10 8/15/11 7/16/12
f 13/17/13 14/18/14 11/9/15
f 17/19/16 18/20/17 6/4/4
f 18/20/17 17/21/16 16/22/18
f 27/23/19 1/24/20 7/16/21
f 21/25/22 22/26/23 19/27/1
f 22/28/23 21/29/22 11/30/24
f 24/31/25 25/32/26 16/22/27
f 23/33/28 6/4/4 16/22/18
f 29/34/29 28/35/30 2/3/31
f 32/36/32 31/37/33 7/16/34
f 31/37/33 32/36/32 23/33/28
f 19/27/1 23/33/28 20/38/6
f 22/28/23 11/30/24 19/1/1
f 11/30/24 14/39/14 3/2/2
f 5/10/8 2/3/3 3/2/2
f 2/3/3 28/35/30 19/1/1
f 19/1/1 11/30/24 3/2/2
f 6/4/4 8/15/11 10/40/35
f 10/40/35 1/41/20 6/4/4
f 4/12/9 3/5/2 1/41/20
f 3/5/2 14/42/14 15/43/36
f 15/43/36 12/6/5 3/5/2
f 17/19/16 6/4/4 12/6/5
f 6/4/4 1/41/20 3/5/2
f 20/7/6 26/44/37 24/31/25
f 24/31/25 16/22/38 20/7/6
f 12/8/5 15/45/36 13/17/13
f 13/17/13 11/9/7 12/8/5
f 20/7/6 16/22/38 12/8/5
f 1/46/20 2/3/39 4/11/9
f 10/40/35 8/15/11 9/47/10
f 15/43/36 14/42/14 13/48/13
f 12/49/5 16/22/38 17/21/16
f 27/23/19 30/50/40 29/34/29
f 29/34/29 2/3/39 27/23/19
f 1/24/20 10/51/35 9/14/10
f 9/14/10 7/16/21 1/24/20
f 27/23/19 2/3/39 1/24/20
f 20/7/6 11/9/7 21/52/22
f 26/53/37 25/54/26 24/55/25
f 32/36/32 7/16/34 23/33/28
f 7/16/34 8/15/11 6/4/4
f 18/20/17 16/22/18 6/4/4
f 16/22/18 25/32/26 23/33/28
f 23/33/28 7/16/34 6/4/4
f 30/56/40 28/57/30 29/58/29
f 27/59/19 7/16/21 31/37/33
f 19/27/1 28/57/30 30/56/40
f 30/56/40 27/60/19 19/27/1
f 31/37/33 23/33/28 27/60/19
f 23/33/28 25/54/26 26/53/37
f 26/53/37 20/38/6 23/33/28
f 21/25/22 19/27/1 20/38/6
f 19/27/1 27/60/19 23/33/28
