# Blender 4.4.1
# www.blender.org
mtllib SpeedNBullet.mtl
o 円柱
v 0.000000 -0.653978 -0.200000
v 0.000000 0.653978 -0.200000
v 0.173205 -0.653978 -0.100000
v 0.173205 0.653978 -0.100000
v 0.173205 -0.653978 0.100000
v 0.173205 0.653978 0.100000
v 0.000000 -0.653978 0.200000
v 0.000000 0.653978 0.200000
v -0.173205 -0.653978 0.100000
v -0.173205 0.653978 0.100000
v -0.173205 -0.653978 -0.100000
v -0.173205 0.653978 -0.100000
v 0.000000 0.872180 0.000000
v 0.122256 0.687715 -0.070555
v 0.122463 0.687405 0.070831
v -0.000084 0.688685 0.140595
v -0.121849 0.688575 -0.070223
v -0.000084 0.688695 -0.140432
v -0.125786 0.682685 0.072652
v 0.000000 -0.656006 -0.100000
v 0.000000 0.656006 -0.100000
v 0.086603 -0.656006 -0.050000
v 0.086603 0.656006 -0.050000
v 0.086603 -0.656006 0.050000
v 0.086603 0.656006 0.050000
v 0.000000 -0.656006 0.100000
v 0.000000 0.656006 0.100000
v -0.086603 -0.656006 0.050000
v -0.086603 0.656006 0.050000
v -0.086603 -0.656006 -0.050000
v -0.086603 0.656006 -0.050000
vn 0.5000 -0.0000 -0.8660
vn 1.0000 -0.0000 -0.0000
vn 0.5000 -0.0000 0.8660
vn -0.5000 -0.0000 0.8660
vn 0.5521 0.8338 -0.0000
vn -1.0000 -0.0000 -0.0000
vn -0.5000 -0.0000 -0.8660
vn -0.0000 -1.0000 -0.0000
vn 0.2755 0.8345 0.4771
vn -0.5587 0.8294 -0.0000
vn -0.4167 0.5526 -0.7218
vn -0.2798 0.8288 0.4846
vn 0.2790 0.8298 -0.4832
vn 0.4166 0.5528 0.7217
vn -0.8332 0.5530 -0.0002
vn -0.2792 0.8300 -0.4828
vn -0.4164 0.5531 0.7216
vn 0.4168 0.5524 -0.7219
vn 0.8335 0.5524 -0.0000
vn -0.0000 1.0000 -0.0000
vn 0.5497 0.8354 0.0010
vn 0.2838 0.8281 0.4834
vn -0.5087 0.8607 0.0215
vn -0.2733 0.8607 0.4296
vn 0.2781 0.8348 -0.4752
vn -0.2793 0.8294 -0.4838
vt 0.336483 0.009448
vt 0.009448 0.172966
vt 0.009448 0.009448
vt 0.336483 0.172966
vt 0.009448 0.336483
vt 0.336483 0.336483
vt 0.009448 0.500000
vt 0.336483 0.500000
vt 0.009448 0.663517
vt 0.603530 0.627996
vt 0.500766 0.518897
vt 0.647127 0.602751
vt 0.336483 0.663517
vt 0.009448 0.827034
vt 0.336483 0.827034
vt 0.009448 0.990552
vt 0.807635 0.845931
vt 0.666025 0.600655
vt 0.949245 0.600655
vt 0.500816 0.568787
vt 0.355379 0.603500
vt 0.355379 0.771862
vt 0.501311 0.805102
vt 0.501480 0.855528
vt 0.501162 0.687347
vt 0.603083 0.746100
vt 0.399101 0.628708
vt 0.647129 0.771408
vt 0.395756 0.748431
vt 0.683428 0.009448
vt 0.355379 0.091207
vt 0.355379 0.009448
vt 0.683428 0.091207
vt 0.355379 0.172966
vt 0.683428 0.172966
vt 0.355379 0.254724
vt 0.683428 0.254724
vt 0.355379 0.336483
vt 0.843934 0.314500
vt 0.702324 0.314500
vt 0.773129 0.191862
vt 0.683428 0.336483
vt 0.355379 0.418241
vt 0.683428 0.418241
vt 0.355379 0.500000
vt 0.702324 0.132086
vt 0.773129 0.009448
vt 0.843934 0.132086
vt 0.336483 0.990552
vt 0.949245 0.764172
vt 0.666025 0.764173
vt 0.807635 0.518897
vt 0.843934 0.232741
vt 0.773129 0.355379
vt 0.702324 0.232741
vt 0.683428 0.500000
vt 0.773129 0.172965
vt 0.702324 0.050328
vt 0.843934 0.050328
s 0
usemtl SpeedNBullet
f 2/1/1 3/2/1 1/3/1
f 4/4/2 5/5/2 3/2/2
f 6/6/3 7/7/3 5/5/3
f 8/8/4 9/9/4 7/7/4
f 14/10/5 6/11/5 4/12/5
f 10/13/6 11/14/6 9/9/6
f 12/15/7 1/16/7 11/14/7
f 3/17/8 7/18/8 11/19/8
f 15/20/9 8/21/9 6/11/9
f 10/22/10 17/23/10 12/24/10
f 13/25/11 18/26/11 17/23/11
f 16/27/12 10/22/12 8/21/12
f 18/26/13 4/12/13 2/28/13
f 16/27/14 15/20/14 13/25/14
f 17/23/15 19/29/15 13/25/15
f 18/26/16 12/24/16 17/23/16
f 19/29/17 16/27/17 13/25/17
f 14/10/18 18/26/18 13/25/18
f 15/20/19 14/10/19 13/25/19
f 21/30/1 22/31/1 20/32/1
f 23/33/2 24/34/2 22/31/2
f 25/35/3 26/36/3 24/34/3
f 27/37/4 28/38/4 26/36/4
f 21/39/20 29/40/20 25/41/20
f 29/42/6 30/43/6 28/38/6
f 31/44/7 20/45/7 30/43/7
f 22/46/8 26/47/8 30/48/8
f 2/1/1 4/4/1 3/2/1
f 4/4/2 6/6/2 5/5/2
f 6/6/3 8/8/3 7/7/3
f 8/8/4 10/13/4 9/9/4
f 14/10/21 15/20/21 6/11/21
f 10/13/6 12/15/6 11/14/6
f 12/15/7 2/49/7 1/16/7
f 11/19/8 1/50/8 3/17/8
f 3/17/8 5/51/8 7/18/8
f 7/18/8 9/52/8 11/19/8
f 15/20/22 16/27/22 8/21/22
f 10/22/23 19/29/23 17/23/23
f 16/27/24 19/29/24 10/22/24
f 18/26/25 14/10/25 4/12/25
f 18/26/26 2/28/26 12/24/26
f 21/30/1 23/33/1 22/31/1
f 23/33/2 25/35/2 24/34/2
f 25/35/3 27/37/3 26/36/3
f 27/37/4 29/42/4 28/38/4
f 25/41/20 23/53/20 21/39/20
f 21/39/20 31/54/20 29/40/20
f 29/40/20 27/55/20 25/41/20
f 29/42/6 31/44/6 30/43/6
f 31/44/7 21/56/7 20/45/7
f 30/48/8 20/57/8 22/46/8
f 22/46/8 24/58/8 26/47/8
f 26/47/8 28/59/8 30/48/8
